<svg xmlns="http://www.w3.org/2000/svg" version="1.1" viewBox="-5.0 -10.0 110.0 135.0">
 <path d="m81.156 73.688 5.4688 5.4688c-5.2383-0.24219-24.711 0.69922-29.469-0.84375 8.8438-6.7148 14.039-17.176 14.051-28.281 0.015625-11.105-5.1602-21.578-13.988-28.312 29.156-7.4375 50.594 31.469 23.938 51.969zm-16.09-23.688c-0.007812 7.7305-3.082 15.141-8.5508 20.609-5.4648 5.4648-12.879 8.543-20.609 8.5508h-22.539l5.4844-5.4844c-22.633-16.344-11.266-52.738 17.055-52.836 7.7344 0.007812 15.145 3.0859 20.609 8.5508 5.4688 5.4688 8.543 12.879 8.5508 20.609zm-41.148-3.125c-1.6836 0.058594-3.0195 1.4414-3.0195 3.125s1.3359 3.0664 3.0195 3.125c1.6836-0.058594 3.0195-1.4414 3.0195-3.125s-1.3359-3.0664-3.0195-3.125zm11.988 0c-1.6836 0.058594-3.0156 1.4414-3.0156 3.125s1.332 3.0664 3.0156 3.125c1.6836-0.058594 3.0195-1.4414 3.0195-3.125s-1.3359-3.0664-3.0195-3.125zm11.988 0h0.003907c-1.6836 0.058594-3.0195 1.4414-3.0195 3.125s1.3359 3.0664 3.0195 3.125c1.6836-0.058594 3.0156-1.4414 3.0156-3.125s-1.332-3.0664-3.0156-3.125z"/>
<text x="0.0" y="117.5" font-size="5.0" font-weight="bold" font-family="Arbeit Regular, Helvetica, Arial-Unicode, Arial, Sans-serif" fill="#000000">Created by Dicky Prayudawanto</text><text x="0.0" y="122.5" font-size="5.0" font-weight="bold" font-family="Arbeit Regular, Helvetica, Arial-Unicode, Arial, Sans-serif" fill="#000000">from Noun Project</text></svg>